<!DOCTYPE svg PUBLIC "-//W3C//DTD SVG 20010904//EN" "http://www.w3.org/TR/2001/REC-SVG-20010904/DTD/svg10.dtd">
<svg version="1.0" xmlns="http://www.w3.org/2000/svg" width="1000px" height="786px" viewBox="0 0 10000 7860" preserveAspectRatio="xMidYMid meet">
<g id="layer101" fill="#111224" stroke="none">
<path d="M0 3930 l0 -3930 5000 0 5000 0 0 3930 0 3930 -5000 0 -5000 0 0 -3930z"/>
</g>
<g id="layer102" fill="#258446" stroke="none">
<path d="M0 3530 l0 -3530 5000 0 5000 0 0 3530 0 3530 -5000 0 -5000 0 0 -3530z"/>
</g>
<g id="layer103" fill="#426456" stroke="none">
<path d="M379 7573 c-17 -45 -79 -225 -79 -229 0 -2 6 -4 13 -4 7 0 30 49 53 116 l41 116 38 -108 c21 -60 42 -113 46 -118 24 -27 17 15 -22 128 -34 97 -48 126 -62 126 -10 0 -22 -12 -28 -27z"/>
<path d="M533 7585 c-30 -21 -44 -75 -32 -120 22 -80 122 -90 148 -14 20 57 17 59 -59 59 -38 0 -70 2 -70 5 0 2 5 16 12 30 14 31 51 42 90 27 19 -7 30 -7 34 0 18 28 -86 39 -123 13z m97 -113 c0 -29 -35 -55 -63 -48 -19 4 -47 41 -47 61 0 3 25 5 55 5 47 0 55 -3 55 -18z"/>
<path d="M706 7569 c-35 -42 -35 -96 0 -139 24 -28 32 -31 72 -28 26 2 47 9 50 16 3 9 -6 11 -36 6 -53 -8 -82 18 -82 76 0 56 29 84 81 77 29 -4 39 -2 39 9 0 10 -14 14 -49 14 -43 0 -53 -4 -75 -31z"/>
<path d="M876 7578 c-23 -32 -23 -238 -1 -238 10 0 15 10 15 30 0 20 5 30 15 30 8 0 15 5 15 10 0 6 -7 10 -15 10 -12 0 -15 14 -15 69 0 49 4 72 15 81 8 7 15 16 15 21 0 17 -29 9 -44 -13z"/>
<path d="M965 7575 c-20 -19 -25 -34 -25 -73 0 -66 31 -102 90 -102 58 0 90 36 90 100 0 64 -32 100 -90 100 -30 0 -47 -6 -65 -25z m111 -16 c28 -31 25 -96 -5 -120 -49 -40 -106 -8 -106 59 0 49 27 82 65 82 15 0 35 -9 46 -21z"/>
<path d="M1150 7500 c0 -60 4 -100 10 -100 6 0 10 5 10 10 0 7 6 7 19 0 46 -24 56 -4 11 22 -29 17 -30 19 -30 93 0 43 -4 75 -10 75 -6 0 -10 -40 -10 -100z"/>
<path d="M1261 7591 c-8 -5 -11 -16 -8 -25 5 -13 13 -15 34 -9 43 12 83 7 101 -11 24 -24 6 -46 -50 -63 -79 -23 -108 -91 -55 -128 37 -26 147 -11 147 20 0 23 -16 26 -52 10 -45 -18 -80 -10 -76 18 2 15 17 26 52 38 61 23 86 45 86 79 0 51 -30 73 -101 77 -35 2 -70 0 -78 -6z"/>
<path d="M1481 7574 c-18 -23 -21 -41 -21 -130 0 -97 1 -104 20 -104 18 0 26 20 21 53 0 4 10 7 24 7 16 0 25 6 25 15 0 9 -10 15 -26 15 -24 0 -25 2 -23 55 3 60 6 68 32 78 9 3 17 13 17 22 0 25 -46 18 -69 -11z"/>
<path d="M1589 7574 c-19 -20 -24 -37 -24 -74 0 -66 31 -100 90 -100 60 0 90 34 90 102 0 42 -4 53 -28 74 -39 34 -95 33 -128 -2z m111 -45 c15 -35 -1 -85 -31 -94 -46 -15 -81 43 -59 96 20 47 71 46 90 -2z"/>
<path d="M1803 7585 c-47 -33 -48 -137 0 -170 12 -8 41 -15 64 -15 36 0 43 3 43 20 0 16 -6 19 -35 18 -46 -2 -65 16 -65 62 0 46 19 64 66 62 28 -1 35 2 32 16 -4 23 -75 28 -105 7z"/>
<path d="M1940 7470 c0 -123 1 -130 20 -130 18 0 20 7 20 62 l0 62 33 -32 c22 -21 43 -32 62 -32 l29 0 -41 43 -41 42 40 55 c39 54 39 55 17 58 -16 3 -28 -4 -39 -19 -8 -13 -25 -35 -37 -49 l-22 -25 -1 48 c0 40 -3 47 -20 47 -19 0 -20 -7 -20 -130z"/>
<path d="M8900 7587 c0 -25 42 -137 51 -137 13 0 12 5 -13 82 -20 62 -38 88 -38 55z"/>
<path d="M7415 7581 c-6 -10 -45 -120 -45 -128 0 -1 6 -3 14 -3 7 0 19 20 26 45 7 25 16 45 20 45 4 0 13 -20 20 -45 7 -25 19 -45 26 -45 18 0 17 3 -9 74 -22 58 -39 77 -52 57z"/>
<path d="M7512 7578 c-15 -15 -16 -60 0 -76 25 -25 78 -8 78 25 0 8 -13 13 -35 13 -27 0 -33 3 -28 16 4 12 14 14 35 10 21 -4 28 -2 26 7 -6 17 -60 21 -76 5z m45 -64 c-3 -3 -12 -4 -19 -1 -8 3 -5 6 6 6 11 1 17 -2 13 -5z"/>
<path d="M7622 7578 c-16 -16 -15 -63 2 -77 17 -14 68 -11 64 4 -2 5 -10 8 -19 7 -9 -2 -22 4 -29 13 -19 22 5 48 38 40 17 -4 23 -2 20 7 -6 17 -60 22 -76 6z"/>
<path d="M7726 7578 c-10 -33 -13 -86 -6 -98 7 -11 12 -10 27 5 13 13 14 20 5 23 -17 5 -15 51 3 58 8 4 15 10 15 15 0 14 -40 11 -44 -3z"/>
<path d="M7792 7578 c-7 -7 -12 -24 -12 -38 0 -14 5 -31 12 -38 7 -7 24 -12 38 -12 14 0 31 5 38 12 7 7 12 24 12 38 0 14 -5 31 -12 38 -7 7 -24 12 -38 12 -14 0 -31 -5 -38 -12z m62 -24 c7 -19 -10 -44 -29 -44 -16 0 -26 25 -19 45 8 20 40 19 48 -1z"/>
<path d="M7900 7542 c0 -47 1 -49 30 -50 35 -1 38 8 10 26 -13 8 -20 23 -20 42 0 17 -4 30 -10 30 -5 0 -10 -22 -10 -48z"/>
<path d="M7977 7583 c-15 -15 -5 -22 22 -17 44 9 47 -13 6 -37 -29 -17 -35 -27 -33 -48 3 -23 7 -26 41 -26 20 0 37 5 37 10 0 6 -11 10 -25 10 -34 0 -33 17 1 36 33 18 42 43 24 64 -13 15 -61 20 -73 8z"/>
<path d="M8086 7578 c-10 -33 -13 -86 -6 -98 7 -11 12 -10 27 5 13 13 14 20 5 23 -17 5 -15 51 3 58 8 4 15 10 15 15 0 14 -40 11 -44 -3z"/>
<path d="M8152 7578 c-7 -7 -12 -24 -12 -38 0 -14 5 -31 12 -38 7 -7 24 -12 38 -12 14 0 31 5 38 12 7 7 12 24 12 38 0 14 -5 31 -12 38 -7 7 -24 12 -38 12 -14 0 -31 -5 -38 -12z m62 -23 c8 -22 -4 -45 -24 -45 -20 0 -32 23 -24 45 4 8 14 15 24 15 10 0 20 -7 24 -15z"/>
<path d="M8272 7578 c-16 -16 -15 -63 2 -77 17 -14 68 -11 64 4 -2 5 -10 8 -19 7 -9 -2 -22 4 -29 13 -19 22 5 48 38 40 17 -4 23 -2 20 7 -6 17 -60 22 -76 6z"/>
<path d="M8360 7520 c0 -40 4 -70 10 -70 6 0 10 16 10 37 0 34 1 35 18 20 28 -26 46 -22 28 6 -13 19 -13 25 0 41 18 25 18 36 1 36 -8 0 -20 -12 -27 -27 l-14 -28 -4 28 c-7 54 -22 25 -22 -43z"/>
<path d="M8522 7578 c-16 -16 -15 -63 2 -77 17 -14 68 -11 64 4 -2 5 -10 8 -19 7 -22 -4 -41 21 -33 43 5 13 14 15 36 11 21 -4 28 -2 26 7 -6 17 -60 21 -76 5z"/>
<path d="M8622 7578 c-7 -7 -12 -24 -12 -38 0 -14 5 -31 12 -38 7 -7 24 -12 38 -12 14 0 31 5 38 12 7 7 12 24 12 38 0 14 -5 31 -12 38 -7 7 -24 12 -38 12 -14 0 -31 -5 -38 -12z m58 -23 c10 -12 10 -18 0 -30 -24 -29 -58 -7 -44 30 4 8 12 15 19 15 7 0 18 -7 25 -15z"/>
<path d="M8730 7541 l0 -49 73 2 72 1 3 48 c2 28 -1 47 -7 47 -6 0 -11 -15 -11 -34 0 -38 -17 -57 -31 -35 -5 8 -9 26 -9 42 0 15 -4 27 -10 27 -5 0 -10 -15 -10 -34 0 -19 -5 -38 -10 -41 -18 -11 -40 15 -40 46 0 16 -4 29 -10 29 -5 0 -10 -22 -10 -49z"/>
<path d="M9040 7575 c0 -10 -10 -15 -30 -15 -16 0 -30 -5 -30 -11 0 -19 54 -99 67 -99 11 0 23 90 15 123 -5 21 -22 23 -22 2z m0 -60 c0 -14 -2 -25 -4 -25 -2 0 -11 11 -20 25 -16 24 -16 25 4 25 15 0 20 -7 20 -25z"/>
<path d="M9110 7580 c0 -5 5 -10 10 -10 6 0 10 -18 10 -41 0 -22 -4 -38 -9 -34 -16 9 -24 -15 -11 -30 27 -32 40 -17 40 45 0 33 4 60 10 60 6 0 10 5 10 10 0 6 -13 10 -30 10 -16 0 -30 -4 -30 -10z"/>
<path d="M9197 7583 c-16 -15 -5 -24 22 -18 39 8 52 -21 15 -35 -25 -10 -26 -11 -10 -35 16 -24 16 -25 -9 -25 -14 0 -25 -4 -25 -10 0 -5 20 -10 45 -10 50 0 53 4 28 33 -17 18 -17 19 0 28 20 11 23 49 5 67 -13 13 -60 16 -71 5z"/>
<path d="M9310 7580 c0 -6 11 -33 25 -60 l25 -50 -35 0 c-19 0 -35 -4 -35 -10 0 -5 23 -10 50 -10 28 0 50 2 50 5 0 17 -61 135 -69 135 -6 0 -11 -5 -11 -10z"/>
<path d="M9460 7575 c0 -10 -10 -15 -30 -15 -16 0 -30 -5 -30 -11 0 -19 54 -99 67 -99 11 0 23 90 15 123 -5 21 -22 23 -22 2z m0 -60 c0 -14 -2 -25 -4 -25 -2 0 -11 11 -20 25 -16 24 -16 25 4 25 15 0 20 -7 20 -25z"/>
<path d="M9550 7533 l28 -58 -34 -3 c-53 -5 -40 -22 16 -22 28 0 50 2 50 5 0 22 -62 135 -74 135 -11 0 -8 -13 14 -57z"/>
<path d="M9627 7583 c-16 -15 -5 -24 22 -18 39 8 52 -21 15 -35 -25 -10 -26 -11 -10 -35 16 -24 16 -25 -9 -25 -14 0 -25 -4 -25 -10 0 -5 20 -10 45 -10 50 0 53 4 28 33 -17 18 -17 19 0 28 20 11 23 49 5 67 -13 13 -60 16 -71 5z"/>
<path d="M2120 7410 c-24 -24 -25 -38 -4 -68 17 -24 62 -30 82 -10 18 18 14 63 -6 81 -25 22 -48 21 -72 -3z m50 -4 c0 -8 -4 -18 -10 -21 -5 -3 -10 3 -10 14 0 12 5 21 10 21 6 0 10 -6 10 -14z m-32 -28 c-3 -28 1 -34 20 -36 19 -3 22 1 22 34 0 27 3 35 11 27 15 -15 7 -54 -13 -67 -33 -20 -69 21 -54 60 9 24 16 15 14 -18z m27 -18 c3 -5 1 -10 -4 -10 -6 0 -11 5 -11 10 0 6 2 10 4 10 3 0 8 -4 11 -10z"/>
<path d="M0 3530 l0 -3530 5000 0 5000 0 0 3530 0 3530 -5000 0 -5000 0 0 -3530z m5728 1485 c471 -100 725 -401 777 -922 l6 -63 -506 0 -505 0 0 506 0 507 81 -7 c44 -4 111 -13 147 -21z"/>
</g>
<g id="layer104" fill="#ed2324" stroke="none">
<path d="M0 3530 l0 -3530 5000 0 5000 0 0 3530 0 3530 -5000 0 -5000 0 0 -3530z m5733 1484 c459 -95 724 -409 772 -911 l7 -73 -506 0 -506 0 0 506 0 507 81 -7 c44 -4 113 -13 152 -22z"/>
</g>
<g id="layer105" fill="#0094da" stroke="none">
<path d="M0 3530 l0 -3530 5000 0 5000 0 0 3530 0 3530 -5000 0 -5000 0 0 -3530z m5733 1484 c459 -95 724 -409 772 -911 l7 -73 -506 0 -506 0 0 506 0 507 81 -7 c44 -4 113 -13 152 -22z m17 -2025 c305 -77 540 -290 661 -599 40 -102 80 -242 93 -327 l6 -43 -505 0 -505 0 0 501 0 502 83 -6 c45 -3 120 -16 167 -28z"/>
</g>
<g id="layer106" fill="#7f7a85" stroke="none">
<path d="M382 7573 c-34 -84 -82 -227 -78 -231 11 -11 25 14 61 117 21 61 42 108 45 104 4 -5 24 -56 44 -115 21 -60 42 -108 47 -108 13 0 12 3 -35 135 -45 126 -64 149 -84 98z"/>
<path d="M525 7574 c-19 -21 -25 -38 -25 -74 0 -118 130 -137 155 -22 l7 32 -71 0 c-78 0 -90 11 -50 51 17 17 30 20 65 16 43 -4 59 5 28 17 -38 15 -85 6 -109 -20z m105 -103 c0 -48 -67 -68 -94 -29 -28 39 -21 48 39 48 48 0 55 -3 55 -19z"/>
<path d="M714 7576 c-25 -21 -29 -31 -29 -76 0 -44 4 -55 28 -76 29 -25 80 -32 107 -14 17 11 10 13 -40 10 -47 -2 -73 26 -73 80 0 59 26 83 81 77 29 -3 42 -1 39 7 -2 6 -22 12 -44 14 -32 2 -47 -2 -69 -22z"/>
<path d="M884 7586 c-16 -13 -19 -29 -22 -130 -3 -101 -2 -116 12 -116 11 0 16 9 16 30 0 20 5 30 15 30 8 0 15 5 15 10 0 6 -7 10 -15 10 -12 0 -15 15 -15 75 0 58 4 77 15 81 16 6 21 24 7 24 -5 0 -17 -6 -28 -14z"/>
<path d="M966 7569 c-37 -44 -36 -101 3 -140 20 -20 39 -29 61 -29 48 0 90 47 90 100 0 89 -100 134 -154 69z m113 -15 c12 -15 21 -39 21 -54 0 -40 -35 -80 -70 -80 -68 0 -94 113 -36 152 24 17 65 8 85 -18z"/>
<path d="M1150 7500 c0 -89 9 -124 23 -87 4 10 7 10 18 0 14 -14 39 -17 39 -5 0 4 -14 15 -30 24 -29 17 -30 19 -30 93 0 43 -4 75 -10 75 -6 0 -10 -40 -10 -100z"/>
<path d="M1267 7593 c-19 -5 -19 -40 0 -36 73 15 90 14 113 -5 33 -27 19 -50 -42 -71 -60 -21 -78 -37 -78 -72 0 -40 32 -69 75 -69 47 0 96 25 89 45 -7 18 -5 18 -40 0 -37 -19 -59 -19 -79 1 -22 22 -7 36 60 61 63 23 84 56 66 100 -7 17 -24 35 -37 42 -25 11 -92 13 -127 4z"/>
<path d="M1492 7584 c-21 -14 -22 -23 -22 -130 0 -95 3 -114 15 -114 10 0 15 10 15 30 0 25 4 30 25 30 16 0 25 6 25 15 0 9 -9 15 -25 15 -24 0 -25 3 -25 54 0 53 12 78 42 88 14 5 2 28 -15 28 -7 0 -23 -7 -35 -16z"/>
<path d="M1603 7585 c-32 -23 -47 -77 -33 -120 14 -42 44 -65 85 -65 41 0 71 23 85 65 22 68 -20 135 -85 135 -17 0 -40 -7 -52 -15z m87 -35 c37 -37 13 -120 -35 -120 -25 0 -55 38 -55 70 0 32 30 70 55 70 8 0 24 -9 35 -20z"/>
<path d="M1797 7574 c-22 -21 -27 -36 -27 -74 0 -65 36 -102 94 -98 31 2 42 8 44 22 3 15 0 18 -20 13 -59 -15 -98 32 -77 93 12 33 35 44 74 34 23 -6 26 -4 23 12 -2 14 -13 20 -44 22 -33 2 -45 -2 -67 -24z"/>
<path d="M1940 7470 c0 -123 1 -130 20 -130 18 0 20 7 20 61 l0 61 35 -31 c20 -17 47 -31 60 -31 23 0 22 3 -18 39 l-41 39 42 61 c43 60 43 61 19 61 -19 0 -32 -11 -54 -45 -15 -25 -31 -45 -35 -45 -5 0 -8 20 -8 45 0 38 -3 45 -20 45 -19 0 -20 -7 -20 -130z"/>
<path d="M8900 7593 c0 -20 45 -143 53 -143 5 0 7 6 4 13 -3 7 -13 41 -22 75 -10 34 -22 62 -26 62 -5 0 -9 -3 -9 -7z"/>
<path d="M7415 7578 c-2 -7 -13 -37 -24 -67 -11 -30 -19 -57 -16 -59 9 -10 23 11 35 53 7 25 16 45 20 45 4 0 13 -20 20 -45 12 -42 26 -63 35 -53 2 2 -6 33 -19 68 -23 63 -42 85 -51 58z"/>
<path d="M7516 7575 c-19 -19 -21 -56 -4 -73 25 -25 78 -8 78 25 0 8 -13 13 -36 13 -41 0 -44 25 -3 26 32 0 36 18 6 22 -14 2 -32 -4 -41 -13z m47 -62 c-7 -2 -19 -2 -25 0 -7 3 -2 5 12 5 14 0 19 -2 13 -5z"/>
<path d="M7626 7575 c-34 -34 -6 -89 43 -83 36 4 33 22 -4 23 -25 0 -30 4 -30 25 0 22 4 25 33 25 17 0 31 4 29 10 -6 17 -54 17 -71 0z"/>
<path d="M7726 7578 c-10 -33 -13 -86 -6 -98 7 -11 12 -10 27 5 13 13 14 20 5 23 -14 4 -17 62 -2 62 6 0 10 5 10 10 0 14 -30 12 -34 -2z"/>
<path d="M7796 7574 c-33 -33 -10 -84 38 -84 20 0 46 28 46 50 0 10 -7 26 -16 34 -8 9 -24 16 -34 16 -10 0 -26 -7 -34 -16z m59 -24 c8 -26 -1 -40 -26 -40 -22 0 -34 22 -25 45 8 22 44 18 51 -5z"/>
<path d="M7900 7541 c0 -45 2 -48 25 -48 28 0 33 12 10 21 -9 3 -15 19 -15 41 0 19 -4 35 -10 35 -5 0 -10 -22 -10 -49z"/>
<path d="M7977 7583 c-15 -14 -6 -21 24 -19 45 2 46 -17 4 -37 -28 -13 -36 -23 -33 -39 4 -29 29 -42 63 -34 32 8 26 20 -12 21 -39 0 -38 19 2 38 36 17 45 43 23 65 -13 13 -60 16 -71 5z"/>
<path d="M8086 7578 c-10 -33 -13 -86 -6 -98 7 -11 12 -10 27 5 13 13 14 20 5 23 -14 4 -17 62 -2 62 6 0 10 5 10 10 0 14 -30 12 -34 -2z"/>
<path d="M8156 7574 c-9 -8 -16 -24 -16 -34 0 -10 7 -26 16 -34 8 -9 24 -16 34 -16 10 0 26 7 34 16 9 8 16 24 16 34 0 10 -7 26 -16 34 -8 9 -24 16 -34 16 -10 0 -26 -7 -34 -16z m59 -24 c8 -26 -1 -40 -26 -40 -22 0 -34 22 -25 45 8 22 44 18 51 -5z"/>
<path d="M8278 7579 c-25 -14 -23 -65 3 -79 23 -13 64 -10 64 5 0 5 -13 9 -30 10 -25 0 -30 4 -30 25 0 22 4 25 33 25 17 0 31 4 29 10 -5 14 -49 17 -69 4z"/>
<path d="M8360 7520 c0 -40 4 -70 10 -70 6 0 10 16 10 35 0 36 13 47 24 20 3 -8 13 -15 22 -15 16 0 16 2 -1 20 -17 18 -17 21 -1 46 25 37 10 44 -19 9 l-24 -30 -1 28 c0 15 -4 27 -10 27 -6 0 -10 -30 -10 -70z"/>
<path d="M8526 7575 c-34 -34 -6 -89 43 -83 36 4 33 22 -4 23 -25 0 -30 4 -30 25 0 22 4 25 33 25 17 0 31 4 29 10 -6 17 -54 17 -71 0z"/>
<path d="M8626 7574 c-19 -18 -20 -38 -6 -65 21 -38 90 -14 90 31 0 10 -7 26 -16 34 -8 9 -24 16 -34 16 -10 0 -26 -7 -34 -16z m59 -24 c8 -26 -1 -40 -26 -40 -22 0 -34 22 -25 45 8 22 44 18 51 -5z"/>
<path d="M8730 7541 l0 -49 73 2 72 1 3 48 c2 28 -1 47 -7 47 -6 0 -11 -18 -11 -41 0 -33 -3 -40 -17 -37 -13 2 -19 14 -21 41 -4 50 -22 47 -22 -4 0 -36 -2 -40 -22 -37 -19 2 -24 10 -26 41 -5 54 -22 45 -22 -12z"/>
<path d="M9040 7575 c0 -10 -10 -15 -30 -15 -16 0 -30 -4 -30 -9 0 -18 55 -100 67 -101 11 0 23 90 15 123 -5 21 -22 23 -22 2z m0 -67 c0 -34 -4 -32 -31 15 -8 14 -6 17 11 17 16 0 20 -6 20 -32z"/>
<path d="M9110 7580 c0 -5 5 -10 10 -10 6 0 10 -20 10 -45 0 -37 -3 -43 -16 -38 -14 5 -14 3 -3 -16 25 -39 39 -25 39 39 0 33 4 60 10 60 6 0 10 5 10 10 0 6 -13 10 -30 10 -16 0 -30 -4 -30 -10z"/>
<path d="M9203 7583 c-25 -9 -13 -22 16 -17 39 8 51 -13 22 -37 -18 -15 -20 -22 -11 -39 9 -17 8 -20 -9 -20 -11 0 -23 -4 -26 -10 -4 -6 12 -10 41 -10 l46 0 -17 26 c-15 23 -15 27 -1 43 39 43 -4 88 -61 64z"/>
<path d="M9310 7586 c0 -2 11 -28 25 -58 l25 -53 -30 -3 c-47 -5 -35 -22 15 -22 25 0 45 2 45 5 0 13 -65 135 -72 135 -4 0 -8 -2 -8 -4z"/>
<path d="M9460 7575 c0 -10 -10 -15 -30 -15 -16 0 -30 -4 -30 -10 0 -17 55 -100 66 -100 12 0 24 90 16 123 -5 21 -22 23 -22 2z m0 -67 c0 -34 -4 -32 -31 15 -8 14 -6 17 11 17 16 0 20 -6 20 -32z"/>
<path d="M9530 7586 c0 -2 11 -28 25 -58 l25 -53 -30 -3 c-47 -5 -35 -22 15 -22 25 0 45 2 45 5 0 13 -65 135 -72 135 -4 0 -8 -2 -8 -4z"/>
<path d="M9633 7583 c-25 -9 -13 -22 16 -17 39 8 51 -13 22 -37 -18 -15 -20 -22 -11 -39 9 -17 8 -20 -9 -20 -11 0 -23 -4 -26 -10 -4 -6 12 -10 41 -10 l46 0 -17 26 c-15 23 -15 27 -1 43 39 43 -4 88 -61 64z"/>
<path d="M2126 7414 c-9 -8 -16 -21 -16 -27 0 -6 7 -1 16 11 26 37 74 23 74 -23 0 -43 -58 -63 -79 -27 -6 9 -11 12 -11 7 0 -18 23 -35 46 -35 49 0 72 61 36 93 -23 21 -46 22 -66 1z"/>
<path d="M0 3530 l0 -3530 5000 0 5000 0 0 3530 0 3530 -5000 0 -5000 0 0 -3530z m5735 1486 c257 -61 437 -168 561 -333 117 -155 187 -350 209 -580 l7 -73 -254 0 c-140 0 -593 3 -1006 7 l-752 6 0 499 0 499 583 -4 c501 -3 592 -6 652 -21z m15 -2027 c305 -77 540 -290 661 -599 40 -102 80 -242 93 -327 l6 -43 -505 0 -505 0 0 501 0 502 83 -6 c45 -3 120 -16 167 -28z"/>
</g>
<g id="layer107" fill="#f6831f" stroke="none">
<path d="M0 3530 l0 -3530 5000 0 5000 0 0 3530 0 3530 -5000 0 -5000 0 0 -3530z m5750 1487 c155 -38 272 -89 375 -162 217 -154 354 -423 381 -744 l7 -81 -255 0 c-140 0 -593 3 -1006 7 l-752 6 0 499 0 499 593 -4 c501 -3 602 -6 657 -20z m0 -2028 c234 -59 427 -196 556 -395 44 -66 101 -175 109 -204 1 -3 16 -50 34 -105 25 -75 61 -231 61 -262 0 -2 -227 -3 -505 -3 l-505 0 0 501 0 502 83 -6 c45 -3 120 -16 167 -28z"/>
</g>
<g id="layer108" fill="#a6ce39" stroke="none">
<path d="M0 3530 l0 -3530 5000 0 5000 0 0 3530 0 3530 -5000 0 -5000 0 0 -3530z m5750 1487 c155 -38 272 -89 375 -162 217 -154 354 -423 381 -744 l7 -81 -255 0 c-140 0 -593 3 -1006 7 l-752 6 0 499 0 499 593 -4 c501 -3 602 -6 657 -20z m-45 -2017 c292 -58 520 -231 662 -505 60 -116 117 -294 138 -432 l7 -43 -1009 0 -1008 0 3 500 2 500 503 2 c564 3 577 3 702 -22z"/>
</g>
<g id="layer109" fill="#ffcb06" stroke="none">
<path d="M0 3530 l0 -3530 5000 0 5000 0 0 3530 0 3530 -5000 0 -5000 0 0 -3530z m5750 1487 c318 -79 515 -227 642 -482 93 -185 133 -414 108 -611 -42 -341 -176 -577 -417 -734 -120 -79 -262 -127 -449 -151 l-99 -13 69 -8 c344 -40 605 -219 763 -523 60 -116 117 -294 138 -433 l7 -42 -1009 0 -1008 0 3 500 2 500 503 2 502 3 0 505 0 505 -502 3 -503 2 0 501 0 500 593 -4 c501 -3 602 -6 657 -20z"/>
</g>
<g id="layer110" fill="#fdd955" stroke="none">
<path d="M0 3530 l0 -3530 5000 0 5000 0 0 3530 0 3530 -5000 0 -5000 0 0 -3530z m5750 1487 c318 -79 515 -227 642 -482 93 -185 133 -414 108 -611 -42 -341 -176 -577 -417 -734 -120 -79 -262 -127 -449 -151 l-99 -13 69 -8 c344 -40 605 -219 763 -523 60 -116 117 -294 138 -433 l7 -43 -1089 4 c-975 3 -1095 5 -1156 20 -334 82 -535 231 -663 492 -61 125 -98 263 -110 405 l-7 92 1009 -3 1009 -4 0 505 0 505 -502 3 -503 2 0 501 0 500 593 -4 c501 -3 602 -6 657 -20z"/>
</g>
<g id="layer111" fill="#8ed8f8" stroke="none">
<path d="M390 7596 c0 -3 -20 -62 -45 -131 -25 -70 -40 -125 -33 -123 6 2 29 57 51 121 25 71 44 112 49 104 4 -6 24 -60 44 -119 21 -60 41 -108 45 -108 7 0 -42 155 -76 243 -6 14 -35 25 -35 13z"/>
<path d="M529 7571 c-23 -23 -29 -38 -29 -71 0 -33 6 -48 29 -71 16 -16 39 -29 51 -29 31 0 70 44 70 80 l0 30 -65 0 c-57 0 -65 2 -65 18 0 35 35 55 85 50 47 -6 62 5 23 16 -45 12 -70 6 -99 -23z m105 -103 c-10 -36 -24 -48 -55 -48 -17 0 -34 8 -43 22 -28 40 -21 48 45 48 58 0 60 -1 53 -22z"/>
<path d="M733 7590 c-30 -12 -43 -41 -43 -94 0 -32 6 -52 20 -66 26 -26 66 -35 93 -22 19 9 17 11 -20 11 -61 1 -94 45 -79 105 10 40 33 56 84 56 34 0 43 3 32 10 -18 12 -57 12 -87 0z"/>
<path d="M887 7582 c-14 -15 -17 -39 -15 -133 0 -63 3 -99 5 -81 3 24 9 32 24 32 10 0 19 5 19 10 0 6 -9 10 -20 10 -18 0 -20 7 -20 65 0 52 4 69 20 85 11 11 20 22 20 25 0 11 -18 4 -33 -13z"/>
<path d="M973 7576 c-24 -21 -28 -32 -28 -76 0 -44 4 -55 28 -76 16 -13 41 -24 57 -24 16 0 41 11 57 24 24 21 28 32 28 76 0 44 -4 55 -28 76 -16 13 -41 24 -57 24 -16 0 -41 -11 -57 -24z m111 -18 c23 -32 20 -94 -4 -118 -46 -46 -120 -11 -120 58 0 55 23 82 70 82 29 0 43 -6 54 -22z"/>
<path d="M1150 7500 c0 -60 4 -100 10 -100 6 0 10 7 10 15 0 14 3 14 24 0 13 -9 26 -12 29 -8 3 5 -8 15 -24 22 -29 12 -29 14 -29 92 0 46 -4 79 -10 79 -6 0 -10 -40 -10 -100z"/>
<path d="M1282 7592 c-13 -4 -23 -10 -23 -14 1 -5 1 -13 1 -18 0 -7 6 -7 19 0 27 14 84 13 105 -3 11 -8 17 -22 14 -37 -2 -18 -15 -27 -58 -42 -59 -20 -80 -39 -80 -74 0 -27 44 -64 75 -64 42 0 85 21 85 41 0 18 -2 19 -30 4 -37 -19 -74 -19 -90 0 -20 24 -5 40 59 64 33 12 63 26 66 32 14 22 7 71 -12 91 -22 22 -91 32 -131 20z"/>
<path d="M1510 7593 c-33 -12 -40 -36 -40 -145 0 -89 3 -108 15 -108 10 0 15 10 15 30 0 26 4 30 26 30 31 0 28 24 -5 28 -20 3 -22 8 -19 65 2 51 7 63 24 72 11 6 19 16 16 23 -4 13 -8 14 -32 5z"/>
<path d="M1615 7588 c-33 -19 -44 -41 -45 -89 0 -91 90 -131 150 -67 23 25 27 102 7 129 -28 36 -76 48 -112 27z m77 -35 c23 -20 24 -80 1 -105 -36 -40 -93 -9 -93 50 0 62 51 92 92 55z"/>
<path d="M1799 7571 c-23 -23 -29 -38 -29 -71 0 -70 76 -124 129 -91 22 14 5 28 -28 23 -20 -3 -35 2 -50 17 -45 45 -11 128 50 119 33 -5 50 9 28 23 -28 18 -70 9 -100 -20z"/>
<path d="M1940 7470 c0 -109 2 -130 15 -130 12 0 15 14 15 65 0 36 4 65 8 65 4 0 23 -16 42 -35 19 -19 43 -35 54 -35 17 0 15 6 -17 38 -20 21 -37 41 -37 45 0 4 18 32 40 62 39 52 39 55 18 55 -16 0 -31 -13 -52 -45 -15 -25 -33 -44 -40 -42 -6 2 -12 22 -14 45 -2 29 -8 42 -18 42 -11 0 -14 -23 -14 -130z"/>
<path d="M8904 7583 c4 -9 15 -43 24 -75 9 -32 20 -58 24 -58 4 0 0 23 -8 52 -22 71 -32 98 -40 98 -3 0 -3 -8 0 -17z"/>
<path d="M7398 7523 c-14 -38 -23 -70 -21 -73 7 -8 23 23 35 68 7 23 15 42 18 42 4 0 14 -25 24 -55 9 -30 21 -55 25 -55 5 0 -3 32 -17 70 -13 39 -28 70 -32 70 -4 0 -18 -30 -32 -67z"/>
<path d="M7517 7572 c-10 -10 -17 -26 -17 -35 0 -19 26 -47 45 -47 15 0 45 27 45 41 0 5 -16 9 -35 9 -19 0 -35 4 -35 10 0 13 32 28 49 22 8 -3 11 0 7 7 -11 17 -41 13 -59 -7z m53 -51 c0 -15 -16 -22 -34 -15 -25 9 -19 24 9 24 14 0 25 -4 25 -9z"/>
<path d="M7627 7572 c-22 -24 -21 -45 1 -65 21 -20 48 -22 58 -6 4 7 1 10 -7 7 -21 -8 -49 10 -49 32 0 23 26 39 54 33 17 -4 18 -3 6 6 -22 16 -45 13 -63 -7z"/>
<path d="M7732 7577 c-13 -15 -19 -83 -9 -93 3 -3 13 1 22 10 9 9 12 16 6 16 -6 0 -11 14 -11 30 0 17 5 30 10 30 6 0 10 5 10 10 0 14 -16 12 -28 -3z"/>
<path d="M7797 7572 c-22 -24 -21 -45 1 -65 26 -24 49 -21 68 8 15 23 15 27 0 50 -19 30 -46 32 -69 7z m58 -32 c0 -18 -6 -26 -23 -28 -24 -4 -38 18 -28 44 3 9 15 14 28 12 17 -2 23 -10 23 -28z"/>
<path d="M7900 7541 c0 -46 2 -49 25 -47 28 1 33 11 10 20 -9 3 -15 19 -15 41 0 19 -4 35 -10 35 -5 0 -10 -22 -10 -49z"/>
<path d="M7983 7583 c-27 -10 -11 -21 22 -16 27 4 35 2 35 -10 0 -8 -16 -24 -35 -36 -19 -11 -35 -27 -35 -36 0 -19 43 -40 64 -32 27 11 17 24 -14 19 -42 -6 -40 20 5 47 39 23 42 32 19 55 -15 16 -37 19 -61 9z"/>
<path d="M8092 7577 c-13 -15 -19 -83 -9 -93 3 -3 13 1 22 10 9 9 12 16 6 16 -6 0 -11 14 -11 30 0 17 5 30 10 30 6 0 10 5 10 10 0 14 -16 12 -28 -3z"/>
<path d="M8157 7572 c-22 -24 -21 -45 1 -65 26 -24 49 -21 68 8 15 23 15 27 0 50 -19 30 -46 32 -69 7z m58 -32 c0 -18 -6 -26 -23 -28 -24 -4 -38 18 -28 44 3 9 15 14 28 12 17 -2 23 -10 23 -28z"/>
<path d="M8277 7572 c-22 -24 -21 -45 1 -65 21 -20 48 -22 58 -6 4 7 1 10 -7 7 -21 -8 -49 10 -49 32 0 23 26 39 54 33 17 -4 18 -3 6 6 -22 16 -45 13 -63 -7z"/>
<path d="M8360 7520 c0 -40 4 -70 10 -70 6 0 10 19 10 42 l0 41 25 -23 c25 -23 37 -16 13 8 -10 10 -8 19 5 42 11 17 14 30 7 30 -6 0 -16 -11 -22 -25 -6 -14 -15 -25 -20 -25 -4 0 -8 11 -8 25 0 14 -4 25 -10 25 -6 0 -10 -30 -10 -70z"/>
<path d="M8527 7572 c-10 -10 -17 -25 -17 -34 0 -19 32 -48 53 -48 28 0 28 19 0 22 -18 2 -29 10 -32 22 -4 25 23 45 52 39 18 -4 19 -3 7 6 -22 16 -45 13 -63 -7z"/>
<path d="M8627 7572 c-22 -24 -22 -45 1 -65 25 -23 45 -21 68 4 17 19 17 23 3 47 -18 33 -49 39 -72 14z m58 -32 c0 -18 -6 -26 -23 -28 -24 -4 -38 18 -28 44 3 9 15 14 28 12 17 -2 23 -10 23 -28z"/>
<path d="M8730 7542 l0 -48 35 -1 c19 -1 37 3 40 8 3 5 14 3 25 -3 28 -18 50 6 50 53 0 22 -4 39 -10 39 -5 0 -10 -18 -10 -41 0 -33 -3 -40 -17 -37 -13 2 -19 14 -21 41 -4 50 -22 47 -22 -4 0 -36 -2 -40 -22 -37 -19 2 -24 10 -26 41 -5 54 -22 46 -22 -11z"/>
<path d="M9040 7571 c0 -14 -8 -21 -30 -23 l-29 -3 29 -47 c17 -27 34 -48 39 -48 10 0 18 79 13 118 -4 27 -22 30 -22 3z m0 -63 l0 -33 -20 25 c-25 32 -25 40 0 40 16 0 20 -7 20 -32z"/>
<path d="M9118 7583 c7 -3 12 -24 12 -54 0 -42 -2 -48 -17 -42 -16 6 -16 4 1 -15 29 -34 36 -27 36 36 0 32 5 63 12 70 9 9 4 12 -22 11 -19 0 -29 -3 -22 -6z"/>
<path d="M9200 7580 c-15 -10 -13 -11 30 -13 32 -2 40 -36 11 -44 -25 -6 -27 -16 -6 -33 22 -18 18 -28 -12 -33 -23 -3 -21 -4 10 -6 40 -1 44 5 23 34 -12 17 -12 21 5 33 48 33 -12 94 -61 62z"/>
<path d="M9310 7585 c0 -3 11 -28 25 -55 14 -27 25 -54 25 -59 0 -5 -15 -12 -32 -14 -29 -3 -27 -4 10 -5 23 -1 42 2 42 7 0 19 -53 131 -61 131 -5 0 -9 -2 -9 -5z"/>
<path d="M9460 7571 c0 -14 -8 -21 -30 -23 l-29 -3 29 -47 c17 -27 34 -48 39 -48 10 0 18 79 13 118 -4 27 -22 30 -22 3z m0 -63 l0 -33 -20 25 c-25 32 -25 40 0 40 16 0 20 -7 20 -32z"/>
<path d="M9530 7585 c0 -3 11 -28 25 -55 14 -27 25 -54 25 -59 0 -5 -15 -12 -32 -14 -29 -3 -27 -4 10 -5 23 -1 42 2 42 7 0 19 -53 131 -61 131 -5 0 -9 -2 -9 -5z"/>
<path d="M9630 7580 c-15 -10 -13 -11 30 -13 32 -2 40 -36 11 -44 -25 -6 -27 -16 -6 -33 22 -18 18 -28 -12 -33 -23 -3 -21 -4 10 -6 40 -1 44 5 23 34 -12 17 -12 21 5 33 48 33 -12 94 -61 62z"/>
<path d="M2185 7410 c3 -5 8 -10 11 -10 3 0 2 5 -1 10 -3 6 -8 10 -11 10 -3 0 -2 -4 1 -10z"/>
<path d="M2141 7372 c-1 -27 3 -33 17 -30 11 2 17 13 17 30 1 20 -2 24 -11 17 -8 -7 -14 -6 -17 3 -3 7 -6 -2 -6 -20z m29 -12 c0 -5 -4 -10 -10 -10 -5 0 -10 5 -10 10 0 6 5 10 10 10 6 0 10 -4 10 -10z"/>
<path d="M0 3530 l0 -3530 5000 0 5000 0 0 3530 0 3530 -5000 0 -5000 0 0 -3530z m5750 1487 c315 -78 514 -226 640 -477 131 -259 153 -584 59 -871 -94 -289 -290 -486 -580 -583 -72 -24 -222 -55 -278 -57 -14 -1 13 -7 61 -14 214 -34 405 -131 543 -276 103 -108 158 -195 221 -346 36 -86 94 -307 94 -356 l0 -28 -1072 4 c-1044 4 -1076 4 -1166 25 -124 28 -182 47 -274 93 -350 173 -538 541 -505 988 31 432 279 752 669 865 102 30 227 49 288 44 l45 -3 3 -497 2 -498 500 0 500 0 0 505 0 505 -500 0 -500 0 0 501 0 500 593 -4 c501 -3 602 -6 657 -20z"/>
</g>
<g id="layer112" fill="#ffffff" stroke="none">
<path d="M349 7470 c-25 -72 -43 -130 -38 -130 4 0 26 54 50 120 23 67 45 117 49 113 4 -4 25 -59 46 -120 22 -62 42 -113 46 -113 4 0 -13 57 -37 126 -25 70 -45 128 -45 130 0 2 -6 4 -12 4 -7 0 -33 -57 -59 -130z"/>
<path d="M550 7587 c-35 -18 -52 -55 -46 -102 5 -43 42 -85 75 -85 31 0 61 33 68 72 l5 37 -70 3 -71 3 12 25 c19 37 60 54 100 41 29 -10 30 -9 13 4 -24 18 -53 19 -86 2z m84 -96 c10 -15 -12 -59 -35 -71 -18 -10 -26 -9 -48 7 -14 11 -27 32 -29 46 -3 26 -2 27 52 27 30 0 57 -4 60 -9z"/>
<path d="M735 7588 c-33 -19 -44 -41 -45 -89 0 -35 5 -51 23 -67 27 -26 70 -37 93 -24 13 7 6 9 -25 9 -53 0 -72 18 -78 75 -7 64 19 93 84 92 33 -1 42 1 28 6 -28 12 -57 11 -80 -2z"/>
<path d="M990 7588 c-15 -8 -31 -30 -39 -54 -13 -37 -12 -44 5 -80 51 -104 189 -36 155 77 -6 20 -17 42 -24 48 -23 18 -70 22 -97 9z m93 -30 c23 -27 22 -89 -1 -119 -43 -52 -122 -15 -122 58 0 43 15 72 43 83 29 11 58 3 80 -22z"/>
<path d="M1151 7499 c1 -57 3 -96 6 -86 5 19 18 22 28 7 3 -5 16 -10 28 -10 18 1 17 3 -9 14 -37 16 -39 22 -43 106 -4 104 -11 83 -10 -31z"/>
<path d="M1288 7593 c-16 -2 -28 -10 -28 -18 0 -10 12 -12 54 -8 46 5 57 2 75 -16 30 -30 13 -58 -43 -72 -102 -25 -117 -111 -25 -134 30 -7 99 18 99 36 0 7 -6 8 -17 3 -37 -16 -89 -16 -102 0 -20 24 -7 42 45 60 63 21 84 42 84 82 0 52 -62 81 -142 67z"/>
<path d="M1505 7588 c-32 -18 -35 -28 -35 -140 0 -89 3 -108 15 -108 10 0 15 10 15 30 0 23 4 30 20 30 11 0 20 7 20 15 0 8 -9 15 -20 15 -19 0 -21 5 -18 62 2 52 7 64 24 73 11 6 19 16 16 23 -5 15 -11 15 -37 0z"/>
<path d="M1599 7571 c-23 -23 -29 -38 -29 -71 0 -50 42 -100 85 -100 43 0 85 50 85 100 0 50 -42 100 -85 100 -16 0 -38 -12 -56 -29z m93 -18 c23 -20 24 -85 2 -107 -8 -9 -26 -16 -39 -16 -34 0 -55 26 -55 67 0 63 51 94 92 56z"/>
<path d="M1820 7587 c-34 -17 -52 -55 -46 -100 7 -61 50 -94 107 -82 40 9 27 32 -15 27 -26 -3 -37 1 -50 19 -9 13 -16 35 -16 49 0 14 7 36 16 49 13 18 24 22 50 19 38 -4 55 17 21 26 -31 8 -39 7 -67 -7z"/>
<path d="M1940 7470 c0 -109 2 -130 15 -130 12 0 15 14 15 65 0 36 4 65 8 65 4 0 23 -16 42 -35 19 -19 43 -35 54 -35 17 0 14 7 -21 42 l-41 41 39 53 c43 59 45 64 24 64 -8 0 -28 -20 -45 -46 -18 -25 -37 -43 -43 -41 -7 2 -13 22 -15 45 -2 29 -8 42 -18 42 -11 0 -14 -23 -14 -130z"/>
<path d="M8902 7590 c3 -8 13 -40 23 -70 9 -30 21 -59 26 -65 5 -5 -2 24 -16 64 -14 41 -28 77 -32 80 -3 3 -4 -1 -1 -9z"/>
<path d="M882 7578 c-8 -8 -11 -49 -10 -127 0 -64 3 -101 5 -83 3 24 9 32 24 32 10 0 19 5 19 10 0 6 -3 9 -7 9 -29 -5 -33 4 -33 68 0 48 5 72 17 85 18 20 4 25 -15 6z"/>
<path d="M7400 7524 c-12 -36 -20 -68 -17 -71 3 -2 13 20 23 51 10 31 21 56 24 56 3 0 14 -25 24 -56 10 -31 20 -53 23 -51 7 8 -37 137 -47 137 -5 0 -18 -30 -30 -66z"/>
<path d="M7520 7570 c-25 -25 -25 -42 -1 -64 24 -21 57 -14 64 14 4 17 0 20 -29 20 -19 0 -34 4 -34 9 0 16 27 31 46 25 16 -5 16 -4 4 5 -21 15 -27 14 -50 -9z m48 -52 c-3 -7 -13 -13 -23 -13 -10 0 -20 6 -22 13 -3 7 5 12 22 12 17 0 25 -5 23 -12z"/>
<path d="M7630 7570 c-11 -11 -20 -24 -20 -30 0 -15 38 -50 54 -50 8 0 18 4 21 10 4 6 -3 9 -16 7 -11 -1 -26 6 -33 16 -15 23 5 53 33 50 13 -2 20 1 16 7 -10 16 -33 12 -55 -10z"/>
<path d="M7732 7577 c-13 -15 -19 -83 -9 -93 3 -3 13 1 22 10 9 9 12 16 6 16 -15 0 -14 53 1 68 8 8 8 12 1 12 -6 0 -15 -6 -21 -13z"/>
<path d="M7800 7570 c-11 -11 -20 -24 -20 -30 0 -5 9 -19 20 -30 11 -11 25 -20 30 -20 6 0 19 9 30 20 11 11 20 25 20 30 0 6 -9 19 -20 30 -11 11 -24 20 -30 20 -5 0 -19 -9 -30 -20z m48 -2 c27 -27 2 -75 -32 -62 -19 7 -22 60 -3 67 19 8 22 8 35 -5z"/>
<path d="M7900 7538 c0 -36 3 -48 9 -39 8 13 12 13 28 1 17 -14 17 -14 1 6 -10 11 -18 35 -18 52 0 18 -4 32 -10 32 -5 0 -10 -24 -10 -52z"/>
<path d="M7985 7579 c-18 -8 -18 -9 5 -8 42 2 50 0 50 -15 0 -8 -16 -23 -35 -35 -39 -23 -42 -32 -19 -55 18 -18 33 -20 54 -5 12 8 12 10 -5 8 -54 -4 -63 21 -16 45 36 19 45 41 25 61 -17 17 -30 18 -59 4z"/>
<path d="M8092 7577 c-13 -15 -19 -83 -9 -93 3 -3 13 1 22 10 9 9 12 16 6 16 -15 0 -14 53 1 68 8 8 8 12 1 12 -6 0 -15 -6 -21 -13z"/>
<path d="M8160 7570 c-11 -11 -20 -24 -20 -30 0 -5 9 -19 20 -30 11 -11 25 -20 30 -20 6 0 19 9 30 20 11 11 20 25 20 30 0 6 -9 19 -20 30 -11 11 -24 20 -30 20 -5 0 -19 -9 -30 -20z m48 -2 c28 -28 -3 -83 -33 -58 -8 7 -15 20 -15 29 0 17 18 41 30 41 3 0 11 -5 18 -12z"/>
<path d="M8280 7570 c-11 -11 -20 -24 -20 -30 0 -12 37 -50 48 -50 4 0 14 5 22 10 12 8 10 10 -9 8 -30 -4 -50 25 -35 50 7 9 21 17 32 16 12 0 19 3 16 8 -9 14 -33 9 -54 -12z"/>
<path d="M8360 7520 c0 -40 4 -70 10 -70 6 0 10 19 10 42 l0 41 26 -24 26 -24 -13 27 c-10 23 -9 31 5 53 9 14 13 25 8 25 -5 0 -15 -11 -22 -25 -7 -14 -17 -25 -22 -25 -4 0 -8 11 -8 25 0 14 -4 25 -10 25 -6 0 -10 -30 -10 -70z"/>
<path d="M8460 7580 c0 -5 5 -10 10 -10 6 0 10 5 10 10 0 6 -4 10 -10 10 -5 0 -10 -4 -10 -10z"/>
<path d="M8529 7571 c-20 -16 -22 -22 -12 -44 13 -28 49 -45 64 -30 6 6 1 9 -12 9 -29 -1 -48 28 -33 52 7 9 21 17 32 16 12 0 19 3 16 8 -8 13 -30 9 -55 -11z"/>
<path d="M8642 7583 c-35 -14 -36 -65 -1 -84 44 -23 84 36 48 72 -20 20 -25 21 -47 12z m36 -15 c28 -28 -3 -83 -33 -58 -8 7 -15 20 -15 29 0 17 18 41 30 41 3 0 11 -5 18 -12z"/>
<path d="M8730 7538 c0 -33 4 -48 9 -40 7 12 12 12 29 1 17 -10 24 -11 33 -2 9 9 18 9 32 2 26 -14 37 -1 44 50 4 27 2 41 -6 41 -6 0 -11 -16 -11 -38 0 -43 -6 -53 -26 -45 -9 3 -14 20 -14 44 0 21 -4 39 -10 39 -5 0 -10 -18 -10 -39 0 -22 -5 -43 -10 -46 -19 -12 -40 16 -40 51 0 19 -4 34 -10 34 -5 0 -10 -24 -10 -52z"/>
<path d="M9040 7570 c0 -16 -7 -20 -31 -20 -16 0 -28 -4 -25 -9 3 -4 17 -6 32 -3 25 4 26 3 23 -38 -2 -26 1 -45 8 -47 11 -4 21 71 15 115 -4 27 -22 29 -22 2z"/>
<path d="M9118 7583 c7 -3 12 -24 12 -54 0 -31 -4 -48 -10 -44 -14 9 -13 -8 2 -23 22 -22 28 -12 28 52 0 42 4 66 13 69 6 3 -4 5 -23 5 -19 0 -29 -2 -22 -5z"/>
<path d="M9210 7580 c-13 -9 -12 -11 5 -9 37 3 45 -1 45 -22 0 -12 -8 -23 -20 -26 -24 -6 -25 -16 -5 -33 22 -18 18 -28 -12 -33 -23 -3 -21 -4 10 -6 40 -1 44 4 22 32 -12 16 -11 21 7 39 17 17 18 22 5 41 -17 26 -36 31 -57 17z"/>
<path d="M9340 7526 l29 -65 -37 -4 -37 -4 43 -1 c23 -1 42 1 42 6 0 14 -55 131 -62 132 -4 0 6 -29 22 -64z"/>
<path d="M9460 7570 c0 -16 -7 -20 -31 -20 -16 0 -28 -4 -25 -9 3 -4 17 -6 31 -3 23 4 25 1 25 -29 l0 -34 -21 25 -21 25 20 -35 c12 -19 25 -36 30 -38 10 -3 19 76 14 116 -4 27 -22 29 -22 2z"/>
<path d="M9556 7535 c13 -31 24 -60 24 -65 0 -5 -15 -11 -32 -13 -29 -3 -27 -4 10 -5 23 -1 42 1 42 6 0 14 -55 131 -62 132 -4 0 4 -25 18 -55z"/>
<path d="M9640 7580 c-13 -9 -12 -11 5 -9 37 3 45 -1 45 -22 0 -12 -8 -23 -20 -26 -24 -6 -25 -16 -5 -33 22 -18 18 -28 -12 -33 -23 -3 -21 -4 10 -6 41 -1 45 4 21 30 -14 16 -14 19 6 39 19 19 20 24 7 43 -17 26 -36 31 -57 17z"/>
<path d="M9010 7500 c6 -11 13 -20 16 -20 2 0 0 9 -6 20 -6 11 -13 20 -16 20 -2 0 0 -9 6 -20z"/>
<path d="M2148 7373 c7 -3 16 -2 19 1 4 3 -2 6 -13 5 -11 0 -14 -3 -6 -6z"/>
<path d="M0 3530 l0 -3530 5000 0 5000 0 0 3530 0 3530 -5000 0 -5000 0 0 -3530z m5730 1492 c426 -91 676 -348 760 -778 34 -176 25 -350 -29 -534 -91 -316 -287 -522 -592 -624 -72 -24 -222 -55 -278 -57 -14 -1 13 -7 61 -14 214 -34 405 -131 543 -276 103 -108 158 -195 221 -346 36 -86 94 -307 94 -356 l0 -28 -1072 4 c-1044 4 -1076 4 -1166 25 -124 28 -182 47 -274 93 -350 173 -538 541 -505 988 37 504 357 840 863 905 l99 12 -80 7 c-162 15 -342 75 -468 157 -244 161 -395 432 -414 747 l-6 93 504 3 c277 2 761 2 1074 1 532 -1 576 -3 665 -22z"/>
<path d="M4498 3530 l2 -500 500 0 500 0 0 500 0 500 -502 0 -503 0 3 -500z"/>
</g>


</svg>