<?xml version="1.0" standalone="no"?>
<!DOCTYPE svg PUBLIC "-//W3C//DTD SVG 20010904//EN"
 "http://www.w3.org/TR/2001/REC-SVG-20010904/DTD/svg10.dtd">
<svg version="1.0" xmlns="http://www.w3.org/2000/svg"
 width="57.000000pt" height="33.000000pt" viewBox="0 0 57.000000 33.000000"
 preserveAspectRatio="xMidYMid meet">

<g transform="translate(0.000000,33.000000) scale(0.100000,-0.100000)"
fill="#000000" stroke="none">
<path d="M278 303 l202 -3 0 -130 0 -130 -45 0 c-25 0 -68 9 -96 20 -59 22
-134 71 -122 79 10 8 11 111 1 111 -5 0 -8 -26 -8 -57 l0 -58 -53 57 c-54 59
-83 79 -114 77 -12 -1 -10 -3 7 -8 24 -6 25 -11 28 -89 2 -45 6 -82 10 -82 4
0 6 35 4 78 l-4 77 89 -86 c101 -98 164 -129 258 -129 l55 0 0 140 0 140 -207
-2 -208 -3 203 -2z"/>
<path d="M315 225 c35 -34 34 -86 -2 -116 -17 -13 -21 -20 -10 -16 10 4 20 7
23 7 2 0 11 14 19 31 20 38 12 83 -18 104 -33 23 -39 18 -12 -10z"/>
<path d="M377 243 c-16 -15 -5 -51 24 -79 21 -20 29 -36 26 -51 -2 -12 0 -20
4 -17 5 3 9 18 9 34 0 21 -9 35 -31 51 -23 16 -30 27 -26 45 5 26 4 28 -6 17z"/>
<path d="M388 83 c7 -3 16 -2 19 1 4 3 -2 6 -13 5 -11 0 -14 -3 -6 -6z"/>
<path d="M81 53 c-1 -23 0 -23 122 -21 l122 2 -117 3 c-100 3 -117 6 -121 21
-3 12 -5 11 -6 -5z"/>
</g>
</svg>
